<svg xmlns="http://www.w3.org/2000/svg" viewBox="0 0 512 512">
<defs>
 <linearGradient id="bg" x1="0" y1="0" x2="1" y2="1"><stop offset="0" stop-color="#3d8bf0"/><stop offset="1" stop-color="#1a56b8"/></linearGradient>
 <filter id="sh" x="-20%" y="-20%" width="140%" height="150%"><feDropShadow dx="0" dy="10" stdDeviation="12" flood-color="#0a2c66" flood-opacity=".35"/></filter>
</defs>
<rect width="512" height="512" fill="url(#bg)"/>
<path d="M112 128c46-34 120-44 182-20" stroke="#fff" stroke-width="5" stroke-dasharray="2 14" stroke-linecap="round" fill="none" opacity=".8"/>
<g filter="url(#sh)">
 <rect x="126" y="156" width="260" height="226" rx="36" fill="#fff"/>
</g>
<path d="M126 192a36 36 0 0 1 36-36h188a36 36 0 0 1 36 36v20H126z" fill="#dbe8fb"/>
<rect x="178" y="130" width="20" height="54" rx="10" fill="#fff"/><rect x="314" y="130" width="20" height="54" rx="10" fill="#fff"/>
<rect x="178" y="130" width="20" height="54" rx="10" fill="none" stroke="#1a56b8" stroke-width="0"/>
<g>
 <rect x="156" y="238" width="50" height="40" rx="10" fill="#2a78d6"/>
 <rect x="231" y="238" width="50" height="40" rx="10" fill="#2a78d6"/>
 <rect x="306" y="238" width="50" height="40" rx="10" fill="#dbe8fb"/>
 <rect x="156" y="298" width="50" height="40" rx="10" fill="#dbe8fb"/>
 <rect x="231" y="298" width="50" height="40" rx="10" fill="#2a78d6"/>
 <rect x="306" y="298" width="50" height="40" rx="10" fill="#2a78d6"/>
 <path d="M244 258l10 10 18-20" stroke="#fff" stroke-width="7" fill="none" stroke-linecap="round" stroke-linejoin="round"/>
</g>
<g transform="translate(334 116) rotate(-28)">
 <path d="M-46 0c0-7 6-10 12-10h30l26-34h14l-12 34h26l10-12h10l-5 22 5 22h-10l-10-12h-26l12 34h-14l-26-34h-30c-6 0-12-3-12-10z" fill="#fff"/>
</g>
</svg>