<svg xmlns="http://www.w3.org/2000/svg" viewBox="0 0 512 512">
<defs>
 <linearGradient id="sky" x1="0" y1="0" x2="0" y2="1"><stop offset="0" stop-color="#1e5bd8"/><stop offset=".55" stop-color="#4f8ff7"/><stop offset="1" stop-color="#ffb35c"/></linearGradient>
 <linearGradient id="page" x1="0" y1="0" x2="0" y2="1"><stop offset="0" stop-color="#ffffff"/><stop offset="1" stop-color="#eef3fb"/></linearGradient>
 <filter id="sh" x="-20%" y="-20%" width="140%" height="150%"><feDropShadow dx="0" dy="10" stdDeviation="12" flood-color="#0b2a66" flood-opacity=".35"/></filter>
</defs>
<rect width="512" height="512" fill="url(#sky)"/>
<circle cx="256" cy="430" r="120" fill="#ffd76a" opacity=".55"/>
<g filter="url(#sh)">
 <rect x="126" y="150" width="260" height="230" rx="34" fill="url(#page)"/>
 <path d="M126 184a34 34 0 0 1 34-34h192a34 34 0 0 1 34 34v26H126z" fill="#ff6b5b"/>
</g>
<rect x="178" y="126" width="20" height="54" rx="10" fill="#0f2f6b"/><rect x="314" y="126" width="20" height="54" rx="10" fill="#0f2f6b"/>
<g>
 <rect x="156" y="236" width="50" height="40" rx="10" fill="#2fbf71"/><rect x="231" y="236" width="50" height="40" rx="10" fill="#2fbf71"/><rect x="306" y="236" width="50" height="40" rx="10" fill="#e9edf3"/>
 <rect x="156" y="296" width="50" height="40" rx="10" fill="#e9edf3"/><rect x="231" y="296" width="50" height="40" rx="10" fill="#2fbf71"/><rect x="306" y="296" width="50" height="40" rx="10" fill="#2fbf71"/>
 <path d="M244 256l10 10 18-20" stroke="#fff" stroke-width="7" fill="none" stroke-linecap="round" stroke-linejoin="round"/>
</g>
<g transform="translate(330 112) rotate(-28)">
 <path d="M-46 0c0-7 6-10 12-10h30l26-34h14l-12 34h26l10-12h10l-5 22 5 22h-10l-10-12h-26l12 34h-14l-26-34h-30c-6 0-12-3-12-10z" fill="#fff"/>
</g>
<path d="M120 120c40-30 110-40 170-20" stroke="#fff" stroke-width="5" stroke-dasharray="2 14" stroke-linecap="round" fill="none" opacity=".85"/>
</svg>